<svg width="512" height="512" viewBox="0 0 512 512" fill="none" xmlns="http://www.w3.org/2000/svg">
<path fill-rule="evenodd" clip-rule="evenodd" d="M467.935 267.185C466.358 275.562 462.444 282.641 456.192 288.435C458.541 273.582 456.304 259.413 449.482 245.936C439.383 236.351 433.601 224.608 432.147 210.707C431.823 207.117 432.751 203.941 434.943 201.201C438.578 206.603 441.933 212.194 445.008 217.976C452.859 229.954 463.853 235.367 478.001 234.193C468.483 223.166 463.45 210.304 462.902 195.609C453.967 163.276 433.657 152.283 401.951 162.617C373.779 181.159 364.641 206.692 374.55 239.226C382.681 252.948 391.259 266.369 400.273 279.487C401.403 282.932 401.962 286.466 401.951 290.112C400.832 305.043 393.004 310.254 378.465 305.769C372.548 297.236 365.458 289.788 357.215 283.402C336.335 272.967 315.466 262.522 294.586 252.087C288.144 247.893 282.373 242.86 277.251 236.989C268.461 225.425 266.604 212.742 271.659 198.964C277.385 186.259 282.228 173.219 286.198 159.821C296.946 115.544 282.586 82.5516 243.14 60.8438C244.583 57.6452 245.321 54.2901 245.377 50.7783C243.331 36.4519 235.692 26.2075 222.45 20.0228C221.79 31.5757 221.231 43.1398 220.773 54.6927C208.84 55.9005 197.287 58.6965 186.103 63.0805C181.439 68.3146 177.346 73.9065 173.801 79.8563L136.894 110.053C134.154 112.133 133.036 114.929 133.539 118.44C134.68 124.435 135.798 130.396 136.894 136.335C140.462 135.675 143.817 134.366 146.96 132.42C155.347 126.918 163.925 121.706 172.682 116.763C179.135 115.231 184.168 117.289 187.78 122.914C188.53 125.151 188.53 127.388 187.78 129.624C176.429 137.084 164.686 143.783 152.551 149.755C154.587 152.35 156.824 154.766 159.262 157.025C165.581 156.488 171.911 156.488 178.274 157.025C179.918 156.309 181.406 155.381 182.748 154.229C183.665 150.929 184.224 147.574 184.425 144.163C189.458 140.618 194.491 137.084 199.523 133.539C225.19 137.319 239.539 126.325 242.581 100.546C244.505 104.058 245.992 107.782 247.055 111.73C247.457 134.064 236.464 146.188 214.062 148.078C210.965 153.781 207.419 159.194 203.438 164.294C190.353 177.01 176.932 189.312 163.176 201.201C145.148 220.012 139.556 241.999 146.4 267.185C154.576 243.33 171.172 230.469 196.168 228.601C172.526 242.525 160.593 263.215 160.38 290.671C142.978 293.288 125.453 294.586 107.816 294.586C102.985 297.18 99.8197 301.095 98.3099 306.329C97.8402 320.879 97.102 335.418 96.0731 349.946C93.7134 361.443 92.2259 373.007 91.5996 384.615C99.7638 400.933 108.521 416.959 117.882 432.706C125.531 420.392 132.611 407.721 139.131 394.681C131.861 390.487 124.782 386.013 117.882 381.26C120.789 378.543 123.026 375.378 124.592 371.754C117.647 355.638 117.266 339.422 123.473 323.104C124.983 321.539 126.851 320.801 129.065 320.868C153.446 326.415 178.051 330.519 202.879 333.17C198.539 313.542 204.69 298.254 221.332 287.316C219.151 295.682 217.474 304.26 216.299 313.039C217.026 320.991 219.632 328.26 224.128 334.847C229.351 335.597 234.562 335.597 239.785 334.847C252.21 332.957 264.703 331.649 277.251 330.933C287.932 330.709 297.807 333.315 306.888 338.762C290.56 373.208 300.994 394.088 338.203 401.391C343.828 403.527 349.789 404.646 356.097 404.746C369.126 403.986 373.969 409.947 370.636 422.64C369.383 428.065 368.265 433.656 367.281 439.416C365.916 442.536 364.429 445.701 362.807 448.922C356.365 450.757 350.214 453.183 344.354 456.192C336.973 466.85 330.452 478.034 324.782 489.743C340.238 490.862 355.896 491.231 371.754 490.862C371.352 484.051 371.911 477.34 373.432 470.731C374.617 470.06 375.926 469.691 377.346 469.612C381.07 470.731 384.806 471.849 388.53 472.968C388.597 473.572 388.966 473.952 389.648 474.086C390.733 471.581 391.114 468.964 390.767 466.257C391.84 442.201 395.945 418.715 403.069 395.799C404.131 394.211 404.501 392.343 404.187 390.207C401.246 389.547 398.271 389.178 395.24 389.089C381.618 385.331 375.848 376.384 377.905 362.248C382.245 354.643 384.66 346.445 385.175 337.643C386.271 334.523 386.64 331.168 386.293 327.578C388.429 327.891 390.297 327.522 391.885 326.46C397.388 325.8 402.61 324.122 407.543 321.427C420.493 311.35 425.526 298.12 422.641 281.724C418.279 267.789 411.569 255.107 402.51 243.699C399.971 238.991 397.734 234.137 395.8 229.16C393.909 222.886 393.731 216.545 395.24 210.148C397.88 218.044 401.425 225.492 405.865 232.515C414.107 241.127 421.936 250.074 429.351 259.357C441.251 276.982 443.107 295.615 434.943 315.276C429.988 322.836 425.515 330.665 421.522 338.762C420.784 342.654 420.225 346.568 419.845 350.505C421.064 371.866 432.248 382.3 453.396 381.819C440.568 369.159 440.009 355.918 451.719 342.117C470.776 326.336 478.605 306.206 475.205 281.724C473.941 276.211 471.514 271.368 467.935 267.185ZM184.985 88.8033C186.282 83.9719 188.519 79.6885 191.695 75.9419C196.929 75.7518 202.14 75.9419 207.352 76.5011C202.442 85.2916 194.983 89.3961 184.985 88.8033Z" fill="#ECEBEB"/>
<path fill-rule="evenodd" clip-rule="evenodd" d="M258.798 40.1537C279.589 40.8695 297.483 48.3179 312.48 62.5213C308.13 63.3825 303.835 64.5009 299.619 65.8765C298.21 66.2679 297.841 67.0172 298.5 68.1132L301.296 70.9092C309.494 73.146 317.692 75.3827 325.901 77.6195C332.343 86.5777 336.436 96.453 338.203 107.257C332.007 105.702 325.666 104.953 319.19 105.02C319.459 109.091 321.315 112.256 324.782 114.526C330.374 117.691 335.966 120.867 341.558 124.032C343.079 134.914 342.71 145.718 340.44 156.465C335.329 152.641 329.737 149.666 323.664 147.518C322.367 152.048 323.306 156.152 326.46 159.821C330.799 163.791 334.714 168.074 338.203 172.682C336 182.099 332.454 190.856 327.578 198.964C322.579 194.971 317.356 191.236 311.921 187.78C309.863 191.773 309.863 195.877 311.921 200.082C314.292 205.048 317.088 209.712 320.309 214.062C316.025 222.819 312.86 231.956 310.803 241.462C301.934 234.83 293.725 227.382 286.198 219.095C285.449 214.252 285.449 209.398 286.198 204.556C293.949 187.266 299.91 169.372 304.092 150.874C309.371 117.926 300.234 89.7875 276.692 66.4357C271.57 62.4766 266.168 58.9313 260.475 55.811C260.162 50.5435 259.603 45.3206 258.798 40.1537Z" fill="#ECEBEB"/>
<path fill-rule="evenodd" clip-rule="evenodd" d="M172.683 120.677C179.248 119.615 182.413 122.232 182.189 128.506C179.661 131.537 176.675 132.655 173.242 131.861C170.345 136.636 166.051 139.242 160.38 139.69V143.045C153.648 144.275 150.103 141.669 149.756 135.216C152.843 132.096 155.448 132.465 157.585 136.335C159.016 136.212 159.944 135.462 160.38 134.098C157.473 130.195 158.591 127.589 163.736 126.269C165.033 127.376 166.341 128.495 167.65 129.624C168.835 129.479 169.764 128.92 170.446 127.947C169.249 127.119 168.5 126.001 168.209 124.592C169.54 123.015 171.027 121.706 172.683 120.677Z" fill="#BB952D"/>
<path fill-rule="evenodd" clip-rule="evenodd" d="M126.829 258.238C126.761 263.36 127.5 268.203 129.065 272.777C129.233 273.951 129.043 275.07 128.506 276.132C124.066 272.822 119.973 269.087 116.204 264.949C107.861 254 99.1038 243.375 89.9219 233.075C88.345 232.717 86.8575 233.097 85.4484 234.193C74.1751 247.994 68.7733 263.83 69.2318 281.724C65.8767 283.782 63.0807 286.388 60.844 289.553C66.9951 294.765 73.3363 299.797 79.8565 304.651C71.8936 316.886 63.3156 328.629 54.1337 339.88C50.3759 333.092 47.1997 326.012 44.6274 318.631C41.7196 307.682 38.3645 296.867 34.562 286.198C33.8127 283.592 33.8127 280.975 34.562 278.369C48.5418 256.001 60.4749 232.515 70.3502 207.911C76.2441 200.44 83.8938 198.013 93.277 200.642C105.009 210.058 117.68 218.066 131.302 224.687C127.276 235.468 125.788 246.652 126.829 258.238Z" fill="#ECEBEB"/>
<path fill-rule="evenodd" clip-rule="evenodd" d="M268.864 346.59C274.5 346.221 280.092 346.59 285.64 347.709C271.112 373.823 275.966 395.441 300.179 412.575C281.077 424.765 263.742 439.304 248.174 456.192C243.89 461.974 239.596 467.745 235.312 473.527C229.195 471.536 222.865 470.418 216.3 470.172C215.528 471.368 214.969 472.666 214.622 474.086C214.063 479.667 213.873 485.259 214.063 490.862C198.014 491.231 181.988 490.862 165.973 489.743C173.074 476.86 181.283 464.747 190.577 453.396C200.408 453.083 209.735 450.846 218.537 446.686C231.23 438.477 242.604 428.601 252.647 417.048C254.179 414.588 254.56 411.982 253.766 409.22C247.682 405.742 241.9 401.827 236.431 397.477C224.755 382.401 224.755 367.124 236.431 351.623C247.391 349.89 258.194 348.212 268.864 346.59Z" fill="#ECEBEB"/>
<path fill-rule="evenodd" clip-rule="evenodd" d="M371.754 490.862C355.907 492.349 339.869 492.349 323.664 490.862C323.798 490.179 324.179 489.81 324.782 489.743C340.238 490.862 355.896 491.231 371.754 490.862Z" fill="#585A5A"/>
</svg>
